<!--?xml version="1.0" encoding="UTF-8"?-->
<svg width="24" height="24" viewBox="0 0 24 24" xmlns="http://www.w3.org/2000/svg" fill="none" stroke="#4A90E2" stroke-width="2" stroke-linecap="round" stroke-linejoin="round">

  <!-- 灯泡轮廓（极简） -->
  <path d="M12 2a6 6 0 0 0-6 6c0 2.2 1 3.6 2.2 4.8 1.2 1.2 1.8 2 1.8 3.2v1h4v-1c0-1.2.6-2 1.8-3.2C17 11.6 18 10.2 18 8a6 6 0 0 0-6-6z"></path>

  <!-- 内部电路节点 -->
  <circle cx="12" cy="8.5" r="1.1"></circle>
  <circle cx="9.8" cy="10.5" r="1"></circle>
  <circle cx="14.2" cy="10.5" r="1"></circle>

  <!-- 电路连线 -->
  <path d="M12 9.6v1.2"></path>
  <path d="M10.6 11.1l1.2-.6"></path>
  <path d="M13.4 11.1l-1.2-.6"></path>

  <!-- 灯泡底座 -->
  <path d="M10 18h4"></path>
  <path d="M9.5 20h5"></path>

  <!-- 光芒（极简，避免杂乱） -->
  <path d="M12 1v1"></path>
  <path d="M5.5 5.5L4.5 4.5"></path>
  <path d="M18.5 5.5l1-1"></path>

</svg>
